# xmcd CD database file generated by freedbAccess_ocx
#
# Track frame offsets:
#       150
#       20769
#       42841
#       63756
#       83011
#       98711
#       120710
#       142612
#       165039
#       188451
#       210886
#       232838
#       254267
#       272519
#       289524
#       309788
#
# Disc length: 4412 seconds
#
# Revision: 0
# Processed by: cddbd v1.5.1PL0 Copyright (c) Steve Scherf et al.
# Submitted via: CDnGo 2.00
#
DISCID=b2113a10
DTITLE=Whitney Houston - Singles Collection 1999 - Cd 1
DYEAR=1999
DGENRE=Soul
TTITLE0=When You Believe (With Mariah Caray)
TTITLE1=It's Not Right But It's Okay
TTITLE2=I Will Always Love You
TTITLE3=Step By Step
TTITLE4=Exhale (Shoop Shoop)
TTITLE5=I'm Every Woman
TTITLE6=I Have Nothing
TTITLE7=I Wanna Dance With Somebody
TTITLE8=Didn't We Almost Have It All
TTITLE9=We Didn't Know (With Stevie Wonder)
TTITLE10=On Emoment In Time
TTITLE11=My Name Is Not Susan
TTITLE12=I Believe In You And Me
TTITLE13=Something In Common (With Bobby Brown)
TTITLE14=Count On Me Ce Ce Winans
TTITLE15=Heartbreak Hotel Feat. Faith Evans And Kelly Price
EXTD=
EXTT0=
EXTT1=
EXTT2=
EXTT3=
EXTT4=
EXTT5=
EXTT6=
EXTT7=
EXTT8=
EXTT9=
EXTT10=
EXTT11=
EXTT12=
EXTT13=
EXTT14=
EXTT15=
PLAYORDER=
